<?xml version="1.0" encoding="UTF-8" standalone="no"?>
<!-- Created with Inkscape (http://www.inkscape.org/) -->

<svg
   width="512"
   height="512"
   viewBox="0 0 512 512"
   version="1.1"
   id="svg1"
   xml:space="preserve"
   inkscape:version="1.3 (0e150ed6c4, 2023-07-21)"
   sodipodi:docname="logos.inkscape.svg"
   xmlns:inkscape="http://www.inkscape.org/namespaces/inkscape"
   xmlns:sodipodi="http://sodipodi.sourceforge.net/DTD/sodipodi-0.dtd"
   xmlns="http://www.w3.org/2000/svg"
   xmlns:svg="http://www.w3.org/2000/svg"><sodipodi:namedview
     id="namedview1"
     pagecolor="#ffffff"
     bordercolor="#000000"
     borderopacity="0.25"
     inkscape:showpageshadow="2"
     inkscape:pageopacity="0.0"
     inkscape:pagecheckerboard="0"
     inkscape:deskcolor="#d1d1d1"
     inkscape:document-units="px"
     inkscape:export-bgcolor="#ffffff00"
     inkscape:zoom="0.58789063"
     inkscape:cx="154.7907"
     inkscape:cy="208.37209"
     inkscape:window-width="1920"
     inkscape:window-height="991"
     inkscape:window-x="-9"
     inkscape:window-y="-9"
     inkscape:window-maximized="1"
     inkscape:current-layer="layer1" /><defs
     id="defs1" /><g
     inkscape:label="Capa 1"
     inkscape:groupmode="layer"
     id="layer1"><rect
       style="fill:#ffffff;fill-opacity:1;stroke-width:18.898;stroke-linecap:square;paint-order:fill markers stroke"
       id="rect2"
       width="488.18604"
       height="481.38205"
       x="11.906982"
       y="15.308975"
       ry="45.92691"
       inkscape:export-filename="vote-viewer\icon.png"
       inkscape:export-xdpi="96"
       inkscape:export-ydpi="96" /><g
       style="display:none;fill:none"
       id="g1"
       transform="matrix(20.783758,0,0,20.783758,6.5778028,6.1939229)"><path
         d="m 14,16 h 3.8 c 1.1201,0 1.6802,0 2.108,-0.218 0.3763,-0.1917 0.6823,-0.4977 0.874,-0.874 C 21,14.4802 21,13.9201 21,12.8 V 6.2 C 21,5.0799 21,4.51984 20.782,4.09202 20.5903,3.71569 20.2843,3.40973 19.908,3.21799 19.4802,3 18.9201,3 17.8,3 H 9.2 C 8.07989,3 7.51984,3 7.09202,3.21799 6.71569,3.40973 6.40973,3.71569 6.21799,4.09202 6.01338,4.49359 6.00082,5.01165 6.00005,6 M 18,6 13,11 10,8 m 8,-2 v 3 m 0,-3 h -3 m -6,6 c 0,1.1046 -0.89543,2 -2,2 -1.10457,0 -2,-0.8954 -2,-2 0,-1.1046 0.89543,-2 2,-2 1.10457,0 2,0.8954 2,2 z m -2,5 c 0.92997,0 1.39496,0 1.77646,0.1022 1.03527,0.2774 1.84394,1.0861 2.12134,2.1213 C 11,19.605 11,20.07 11,21 H 3 C 3,20.07 3,19.605 3.10222,19.2235 3.37962,18.1883 4.18827,17.3796 5.22354,17.1022 5.60504,17 6.07003,17 7,17 Z"
         stroke="#000000"
         stroke-width="2"
         stroke-linecap="round"
         stroke-linejoin="round"
         id="path1" /></g><g
       id="g2"
       transform="matrix(7.7939092,0,0,7.7939092,6.5949012,6.1696558)"
       style="display:inline"><path
         d="m 33.725,32.591 c -0.941,0.058 -1.708,0.59 -2.294,1.603 -0.59,1.017 -0.908,2.432 -0.943,4.239 -0.034,1.812 0.224,3.18 0.776,4.101 0.552,0.92 1.299,1.323 2.243,1.221 0.936,-0.103 1.687,-0.665 2.245,-1.682 0.559,-1.015 0.855,-2.4 0.888,-4.162 0.035,-1.756 -0.21,-3.091 -0.732,-4.014 -0.522,-0.927 -1.25,-1.364 -2.183,-1.306"
         fill="#000000"
         id="path1-1" /><path
         d="M 44.966,16.827 C 45.422,14.051 45.824,9.002 44.394,2.735 L 44.226,2 10.435,2.604 10.699,3.716 c 1.286,5.426 1.045,10.278 0.656,13.268 L 2,17.225 4.423,48.526 11.691,62 59.462,53.451 62,19.812 44.966,16.827 M 12.77,4.408 42.725,3.873 c 1.448,6.983 0.404,13.711 0,15.48 l -29.948,1.358 c 0.485,-2.412 1.39,-9.482 -0.007,-16.303 m 9.893,43.007 -2.482,0.297 -3.99,-16.534 2.89,-0.149 2.478,12.506 2.984,-12.787 2.628,-0.135 -4.508,16.802 m 14.491,-3.118 c -0.86,1.315 -2.089,2.074 -3.704,2.271 -1.635,0.198 -2.888,-0.273 -3.744,-1.426 -1.165,-1.411 -1.722,-3.583 -1.659,-6.499 0.059,-2.971 0.705,-5.238 1.926,-6.79 0.905,-1.296 2.178,-1.981 3.807,-2.063 1.608,-0.079 2.81,0.469 3.617,1.637 1.076,1.359 1.582,3.452 1.53,6.287 -0.053,2.783 -0.641,4.974 -1.773,6.583 m 11.062,-12.144 -3.02,0.191 -0.22,12.404 -2.183,0.26 0.228,-12.525 -3.185,0.201 0.052,-2.727 8.373,-0.431 -0.045,2.627 m 8.297,11.217 -7.233,0.865 0.251,-14.773 6.985,-0.36 -0.042,2.527 -4.997,0.317 -0.049,3.105 4.598,-0.358 -0.04,2.487 -4.602,0.412 -0.063,3.768 5.231,-0.563 -0.039,2.573"
         fill="#000000"
         id="path2" /><path
         d="M 40.253,7.912 C 34.848,8.017 29.442,8.124 24.035,8.228 24.04,8.666 24.037,9.104 24.025,9.541 29.436,9.435 34.845,9.326 40.255,9.221 40.262,8.784 40.262,8.348 40.253,7.912"
         fill="#000000"
         id="path3" /><path
         d="m 18.898,11.063 a 0.31,0.31 0 0 0 0.451,-0.066 71.35,71.35 0 0 0 2.332,-3.652 c 0.09,-0.149 0,-0.328 -0.195,-0.395 L 21.131,6.827 C 20.934,6.759 20.702,6.826 20.614,6.975 A 64.665,64.665 0 0 1 19.071,9.479 C 18.975,9.63 18.772,9.661 18.622,9.547 A 169.22,169.22 0 0 0 17.348,8.588 0.482,0.482 0 0 0 16.795,8.601 c -0.094,0.071 -0.185,0.144 -0.278,0.216 -0.15,0.119 -0.153,0.311 -0.004,0.422 0.807,0.607 1.602,1.214 2.385,1.824"
         fill="#000000"
         id="path4" /><path
         d="m 39.806,15.568 -16.28,0.345 c -0.053,0.438 -0.107,0.876 -0.162,1.313 l 16.287,-0.348 c 0.052,-0.437 0.105,-0.873 0.155,-1.31"
         fill="#000000"
         id="path5" /><path
         d="m 21.391,14.467 -5.354,0.112 a 197.93,197.93 0 0 1 -0.531,4.31 l 5.361,-0.119 c 0.187,-1.433 0.372,-2.868 0.524,-4.303"
         fill="#000000"
         id="path6" /></g></g></svg>
